<svg id="visual" viewBox="0 0 900 600" width="900" height="600" xmlns="http://www.w3.org/2000/svg" xmlns:xlink="http://www.w3.org/1999/xlink" version="1.1"><rect width="900" height="600" fill="#fff"></rect><g><g transform="translate(589 317)"><path d="M101 -31.3C115.2 10.9 100.2 64 64.5 90.3C28.9 116.5 -27.4 115.9 -62.8 89.5C-98.2 63 -112.7 10.9 -98.7 -30.9C-84.8 -72.7 -42.4 -104.1 0.5 -104.2C43.4 -104.4 86.8 -73.4 101 -31.3Z" stroke="#d3b037" fill="none" stroke-width="20"></path></g><g transform="translate(156 373)"><path d="M87.2 -28C98.6 6.6 83.4 50.2 53.5 71.3C23.6 92.5 -20.8 91.2 -51.5 69.3C-82.1 47.4 -98.9 4.9 -88 -29C-77.1 -62.9 -38.5 -88.3 -0.3 -88.2C37.9 -88.1 75.9 -62.5 87.2 -28Z" stroke="#d3b037" fill="none" stroke-width="20"></path></g><g transform="translate(448 16)"><path d="M77.7 -25.9C86.9 3.3 71.2 39.9 45.3 57.6C19.3 75.4 -17 74.4 -44.2 55.8C-71.5 37.2 -89.7 1.1 -80.8 -27.6C-72 -56.3 -36 -77.4 -0.9 -77.1C34.2 -76.9 68.4 -55.1 77.7 -25.9Z" stroke="#d3b037" fill="none" stroke-width="20"></path></g><g transform="translate(469 596)"><path d="M44.1 -13.9C51.3 8.1 47.5 34.1 31.1 47.1C14.6 60 -14.4 59.9 -32 46.5C-49.7 33.2 -55.8 6.5 -48.6 -15.4C-41.4 -37.4 -20.7 -54.6 -1.1 -54.2C18.4 -53.8 36.8 -35.9 44.1 -13.9Z" stroke="#d3b037" fill="none" stroke-width="20"></path></g><g transform="translate(850 566)"><path d="M49.9 -15.1C57.5 7 51.3 34.6 32.5 49.4C13.6 64.3 -18 66.3 -38.4 51.8C-58.8 37.3 -67.8 6.1 -59.5 -17C-51.3 -40.1 -25.6 -55.2 -2.2 -54.5C21.2 -53.8 42.4 -37.2 49.9 -15.1Z" stroke="#d3b037" fill="none" stroke-width="20"></path></g><g transform="translate(104 46)"><path d="M54 -14.5C62 6.8 54.7 36.1 35.8 50C16.9 63.9 -13.7 62.4 -32.4 48C-51 33.7 -57.7 6.4 -50.4 -14.2C-43 -34.7 -21.5 -48.5 0.8 -48.7C23.1 -49 46.1 -35.7 54 -14.5Z" stroke="#d3b037" fill="none" stroke-width="20"></path></g></g></svg>