<svg id="visual" viewBox="0 0 900 600" width="900" height="600" xmlns="http://www.w3.org/2000/svg" xmlns:xlink="http://www.w3.org/1999/xlink" version="1.1"><rect width="900" height="600" fill="#1d232f"></rect><g><g transform="translate(592 492)"><path d="M51.9 -18.9C58.9 4.5 50.3 31 31 45.8C11.6 60.6 -18.5 63.7 -37.5 50.2C-56.6 36.7 -64.7 6.5 -56.6 -18.5C-48.5 -43.5 -24.2 -63.5 -0.9 -63.2C22.5 -62.9 45 -42.4 51.9 -18.9Z" stroke="#006bb3" fill="none" stroke-width="20"></path></g><g transform="translate(679 306)"><path d="M52.2 -18.5C58.2 1.6 47.3 25.8 29.2 38.5C11.2 51.1 -13.8 52.3 -30.2 40.6C-46.6 28.9 -54.4 4.4 -47.9 -16.4C-41.5 -37.1 -20.7 -54.1 1.2 -54.4C23.1 -54.8 46.2 -38.7 52.2 -18.5Z" stroke="#006bb3" fill="none" stroke-width="20"></path></g><g transform="translate(67 193)"><path d="M56.7 -17.4C63.2 1.7 51.2 27.8 32.6 40.1C14 52.5 -11 51.1 -29.9 38.1C-48.7 25.2 -61.2 0.6 -55.2 -17.7C-49.2 -36.1 -24.6 -48.2 0.2 -48.2C25.1 -48.3 50.2 -36.4 56.7 -17.4Z" stroke="#006bb3" fill="none" stroke-width="20"></path></g><g transform="translate(313 8)"><path d="M35.7 -10.9C40.4 2.8 34.2 20.6 22.4 28.8C10.6 36.9 -6.9 35.2 -18.1 26.6C-29.3 18.1 -34.3 2.7 -30.2 -10.1C-26.2 -22.9 -13.1 -33.1 1.2 -33.5C15.5 -33.8 31.1 -24.5 35.7 -10.9Z" stroke="#006bb3" fill="none" stroke-width="20"></path></g><g transform="translate(760 47)"><path d="M39.4 -13.8C44.2 1.9 36.4 20.6 23.2 29.7C10 38.8 -8.7 38.2 -21.2 29.1C-33.8 20 -40.2 2.4 -35.7 -12.9C-31.1 -28.2 -15.6 -41.3 0.9 -41.6C17.3 -41.8 34.7 -29.4 39.4 -13.8Z" stroke="#006bb3" fill="none" stroke-width="20"></path></g><g transform="translate(501 131)"><path d="M51.1 -16.3C57.9 4.5 49.5 30.6 32.8 41.9C16.1 53.3 -8.8 49.9 -26.2 37.1C-43.5 24.2 -53.1 1.9 -47.5 -17.2C-41.8 -36.4 -20.9 -52.4 0.6 -52.6C22.1 -52.8 44.2 -37.2 51.1 -16.3Z" stroke="#006bb3" fill="none" stroke-width="20"></path></g><g transform="translate(257 298)"><path d="M36.5 -12.9C41.4 3.3 35.5 22.1 21.4 33.3C7.2 44.5 -15.3 48.2 -29.6 38.3C-43.9 28.5 -50 5.1 -43.7 -12.9C-37.5 -31 -18.7 -43.8 -1.5 -43.3C15.8 -42.8 31.6 -29.1 36.5 -12.9Z" stroke="#006bb3" fill="none" stroke-width="20"></path></g><g transform="translate(125 514)"><path d="M31.1 -11C35.4 3.3 30.8 19.6 19.3 28.4C7.8 37.2 -10.5 38.4 -22 30.1C-33.5 21.8 -38.1 4 -33.3 -11C-28.5 -25.9 -14.3 -37.9 -0.4 -37.8C13.4 -37.6 26.8 -25.3 31.1 -11Z" stroke="#006bb3" fill="none" stroke-width="20"></path></g></g></svg>