<svg id="visual" viewBox="0 0 900 600" width="900" height="600" xmlns="http://www.w3.org/2000/svg" xmlns:xlink="http://www.w3.org/1999/xlink" version="1.1"><rect width="900" height="600" fill="#1d232f"></rect><g><g transform="translate(33 102)"><path d="M71 -20.9C80.5 6.1 68.7 42.2 43.6 60.5C18.5 78.9 -19.9 79.5 -45.5 61.2C-71.2 42.9 -84.1 5.7 -74.4 -21.6C-64.7 -48.9 -32.3 -66.2 -0.8 -65.9C30.8 -65.7 61.5 -47.8 71 -20.9Z" stroke="#006bb3" fill="none" stroke-width="20"></path></g><g transform="translate(208 467)"><path d="M70.7 -23.7C79.8 4.8 66.9 39.7 43.6 55.5C20.3 71.4 -13.5 68.2 -38.4 50.6C-63.4 33 -79.5 1 -71.6 -25.9C-63.7 -52.8 -31.9 -74.6 -0.5 -74.4C30.9 -74.3 61.7 -52.2 70.7 -23.7Z" stroke="#006bb3" fill="none" stroke-width="20"></path></g><g transform="translate(884 50)"><path d="M51.3 -17C57.7 2.9 47.9 27.7 30.5 39.8C13.2 51.9 -11.8 51.2 -27.7 39.3C-43.6 27.5 -50.4 4.4 -44.3 -15.2C-38.2 -34.8 -19.1 -50.9 1.7 -51.5C22.5 -52 44.9 -37 51.3 -17Z" stroke="#006bb3" fill="none" stroke-width="20"></path></g><g transform="translate(798 304)"><path d="M49.3 -18.2C55.2 2.3 45.5 25.8 28.1 38.4C10.7 50.9 -14.4 52.7 -30.2 41.3C-46 29.9 -52.4 5.4 -45.8 -16.1C-39.2 -37.5 -19.6 -55.9 1 -56.2C21.7 -56.5 43.3 -38.8 49.3 -18.2Z" stroke="#006bb3" fill="none" stroke-width="20"></path></g><g transform="translate(573 411)"><path d="M48.4 -18.4C54.8 4 46.6 28.4 27.7 43.4C8.7 58.5 -20.9 64.1 -39 51.4C-57.2 38.8 -63.7 8 -55.3 -17.2C-46.8 -42.4 -23.4 -61.9 -1.2 -61.6C21 -61.2 42 -40.8 48.4 -18.4Z" stroke="#006bb3" fill="none" stroke-width="20"></path></g><g transform="translate(288 266)"><path d="M58.7 -16.9C67.2 7 59 38.5 38.9 53C18.8 67.5 -13.3 64.9 -33.9 49.3C-54.6 33.7 -63.8 5 -56.2 -17.6C-48.7 -40.2 -24.3 -56.8 0.4 -56.9C25.1 -57 50.2 -40.7 58.7 -16.9Z" stroke="#006bb3" fill="none" stroke-width="20"></path></g><g transform="translate(896 535)"><path d="M59.6 -21.3C66.4 1.4 53.5 28.6 32.9 43.1C12.3 57.5 -15.9 59.1 -34.1 46.1C-52.3 33.1 -60.4 5.4 -53 -18.2C-45.7 -41.8 -22.8 -61.3 1.8 -61.9C26.4 -62.5 52.8 -44.1 59.6 -21.3Z" stroke="#006bb3" fill="none" stroke-width="20"></path></g><g transform="translate(438 596)"><path d="M53.6 -19.9C60.5 3.7 50.8 30.2 30.8 45.5C10.7 60.8 -19.8 65 -38 51.9C-56.3 38.7 -62.3 8.2 -54 -17.4C-45.6 -43 -22.8 -63.8 0.3 -63.9C23.4 -64 46.8 -43.4 53.6 -19.9Z" stroke="#006bb3" fill="none" stroke-width="20"></path></g><g transform="translate(650 125)"><path d="M63.9 -20.6C72.2 4.6 60.8 36.3 37.8 53.2C14.8 70.2 -19.7 72.5 -39.9 57.3C-60.1 42.1 -66 9.4 -56.9 -17C-47.9 -43.3 -23.9 -63.2 2 -63.9C27.9 -64.5 55.7 -45.8 63.9 -20.6Z" stroke="#006bb3" fill="none" stroke-width="20"></path></g></g></svg>