<svg id="visual" viewBox="0 0 1920 1080" width="1920" height="1080" xmlns="http://www.w3.org/2000/svg" xmlns:xlink="http://www.w3.org/1999/xlink" version="1.1"><rect width="1920" height="1080" fill="#1d232f"></rect><g><g transform="translate(303 238)"><path d="M133.8 -49.5C150 6.4 123.6 70.1 74.8 106.2C26.1 142.4 -44.9 151 -93.1 118.3C-141.2 85.7 -166.5 11.7 -147.2 -48.6C-127.8 -108.8 -63.9 -155.3 -2.6 -154.5C58.8 -153.7 117.6 -105.5 133.8 -49.5Z" fill="none" stroke="#006bb3" stroke-width="20"></path></g><g transform="translate(574 1068)"><path d="M126.6 -47.4C140.7 2.4 112.8 59.6 66.5 93.9C20.1 128.2 -44.7 139.5 -87.1 110.8C-129.5 82.2 -149.4 13.6 -131.2 -41.9C-112.9 -97.4 -56.5 -139.8 -0.1 -139.8C56.2 -139.7 112.4 -97.3 126.6 -47.4Z" fill="none" stroke="#006bb3" stroke-width="20"></path></g><g transform="translate(1629 853)"><path d="M107.2 -36.6C120.5 6.1 100.1 58 61.8 86C23.5 114 -32.7 118.2 -72.7 91.3C-112.7 64.3 -136.5 6.1 -121.6 -38.7C-106.8 -83.6 -53.4 -115.1 -3.2 -114C46.9 -113 93.9 -79.4 107.2 -36.6Z" fill="none" stroke="#006bb3" stroke-width="20"></path></g><g transform="translate(16 855)"><path d="M106.2 -35C122.3 15.1 109.5 74 72.4 101.5C35.2 128.9 -26.2 124.7 -64.4 95.3C-102.7 66 -117.8 11.4 -103.2 -36.6C-88.6 -84.7 -44.3 -126.1 0.4 -126.2C45 -126.4 90.1 -85.1 106.2 -35Z" fill="none" stroke="#006bb3" stroke-width="20"></path></g><g transform="translate(935 689)"><path d="M103.6 -28.9C119.7 15.9 108.2 74.5 73 99.9C37.9 125.3 -20.9 117.6 -63.9 86.7C-106.9 55.8 -133.9 1.7 -120.6 -39.2C-107.3 -80.2 -53.7 -108 -5 -106.4C43.7 -104.8 87.4 -73.7 103.6 -28.9Z" fill="none" stroke="#006bb3" stroke-width="20"></path></g><g transform="translate(1724 278)"><path d="M117.5 -33.2C133.2 10.1 113.7 69.9 74.5 97.1C35.3 124.3 -23.7 119 -65.3 89C-107 58.9 -131.4 4.2 -117.6 -36.5C-103.8 -77.2 -51.9 -103.8 -0.5 -103.6C50.9 -103.5 101.8 -76.6 117.5 -33.2Z" fill="none" stroke="#006bb3" stroke-width="20"></path></g><g transform="translate(698 339)"><path d="M112.1 -33.5C128.4 13.7 113.1 74.1 70.6 107.5C28.1 140.8 -41.6 147 -81.9 116.8C-122.3 86.5 -133.2 19.8 -114.7 -30.5C-96.1 -80.9 -48.1 -114.9 -0.1 -114.9C47.9 -114.8 95.8 -80.8 112.1 -33.5Z" fill="none" stroke="#006bb3" stroke-width="20"></path></g><g transform="translate(1268 145)"><path d="M131.5 -42.5C148.5 9.8 125.5 75.4 79.6 108.4C33.8 141.5 -34.9 142 -75.2 111C-115.5 80 -127.4 17.4 -110.1 -35.2C-92.9 -87.8 -46.4 -130.4 5.4 -132.2C57.2 -133.9 114.4 -94.8 131.5 -42.5Z" fill="none" stroke="#006bb3" stroke-width="20"></path></g><g transform="translate(1223 1019)"><path d="M104.3 -32.7C119.4 12.7 105.2 68.9 65.8 99.7C26.4 130.5 -38.1 135.8 -81.3 105.8C-124.4 75.9 -146.3 10.6 -129.3 -37.5C-112.2 -85.7 -56.1 -116.7 -5.8 -114.9C44.6 -113 89.1 -78.2 104.3 -32.7Z" fill="none" stroke="#006bb3" stroke-width="20"></path></g></g></svg>