<svg id="visual" viewBox="0 0 900 600" width="900" height="600" xmlns="http://www.w3.org/2000/svg" xmlns:xlink="http://www.w3.org/1999/xlink" version="1.1"><path d="M0 115L82 115L82 55L164 55L164 145L245 145L245 109L327 109L327 145L409 145L409 127L491 127L491 97L573 97L573 97L655 97L655 139L736 139L736 133L818 133L818 127L900 127L900 127L900 0L900 0L818 0L818 0L736 0L736 0L655 0L655 0L573 0L573 0L491 0L491 0L409 0L409 0L327 0L327 0L245 0L245 0L164 0L164 0L82 0L82 0L0 0Z" fill="#1d232f"></path><path d="M0 379L82 379L82 217L164 217L164 379L245 379L245 307L327 307L327 277L409 277L409 283L491 283L491 253L573 253L573 247L655 247L655 253L736 253L736 331L818 331L818 229L900 229L900 235L900 125L900 125L818 125L818 131L736 131L736 137L655 137L655 95L573 95L573 95L491 95L491 125L409 125L409 143L327 143L327 107L245 107L245 143L164 143L164 53L82 53L82 113L0 113Z" fill="#23334d"></path><path d="M0 469L82 469L82 283L164 283L164 421L245 421L245 403L327 403L327 373L409 373L409 379L491 379L491 343L573 343L573 355L655 355L655 343L736 343L736 409L818 409L818 307L900 307L900 343L900 233L900 227L818 227L818 329L736 329L736 251L655 251L655 245L573 245L573 251L491 251L491 281L409 281L409 275L327 275L327 305L245 305L245 377L164 377L164 215L82 215L82 377L0 377Z" fill="#24456d"></path><path d="M0 505L82 505L82 343L164 343L164 487L245 487L245 499L327 499L327 409L409 409L409 451L491 451L491 397L573 397L573 391L655 391L655 415L736 415L736 463L818 463L818 361L900 361L900 403L900 341L900 305L818 305L818 407L736 407L736 341L655 341L655 353L573 353L573 341L491 341L491 377L409 377L409 371L327 371L327 401L245 401L245 419L164 419L164 281L82 281L82 467L0 467Z" fill="#1e588f"></path><path d="M0 601L82 601L82 601L164 601L164 601L245 601L245 601L327 601L327 601L409 601L409 601L491 601L491 601L573 601L573 601L655 601L655 601L736 601L736 601L818 601L818 601L900 601L900 601L900 401L900 359L818 359L818 461L736 461L736 413L655 413L655 389L573 389L573 395L491 395L491 449L409 449L409 407L327 407L327 497L245 497L245 485L164 485L164 341L82 341L82 503L0 503Z" fill="#006bb3"></path></svg>